#Comment line ignore any data following # character 
#Hierarchical Translation and Rotation (.htr) file 
[Header]	
#Header keywords are followed by a single value 
FileType HTR		#Single word string
DataType HTRS		#Translation followed by rotation and scale data
FileVersion 1		#integer
NumSegments 84		#integer
NumFrames 2		#integer
DataFrameRate 30		#integer, data frame rate in this file
EulerRotationOrder ZYX
CalibrationUnits mm
RotationUnits Degrees
GlobalAxisofGravity Y
BoneLengthAxis Y
ScaleFactor 1.00
[SegmentNames&Hierarchy]
#CHILD	PARENT
MASTER GLOBAL
root MASTER
chest root
L_mid_tent01 root
R_mid_tent01 root
spine01 root
Bip01_Neck chest
L_humerus chest
R_humerus chest
weapon_bone chest
Bip01_Head Bip01_Neck
eye_left_bone Bip01_Head
eye_right_bone Bip01_Head
L_forearm L_humerus
L_front_hand L_forearm
L_weapon_bone L_forearm
L_front_hand01_01 L_front_hand
L_front_hand02_01 L_front_hand
L_front_hand03_01 L_front_hand
L_front_hand01_02 L_front_hand01_01
L_front_hand02_02 L_front_hand02_01
L_front_hand03_02 L_front_hand03_01
R_forearm R_humerus
R_front_hand R_forearm
R_weapon_bone R_forearm
R_front_hand01_01 R_front_hand
R_front_hand02_01 R_front_hand
R_front_hand03_01 R_front_hand
R_front_hand01_02 R_front_hand01_01
R_front_hand02_02 R_front_hand02_01
R_front_hand03_02 R_front_hand03_01
null_rope01_connect L_mid_tent01
Rope1_Seg01 null_rope01_connect
Rope1_Seg02 Rope1_Seg01
Rope1_Seg03 Rope1_Seg02
Rope1_Seg04 Rope1_Seg03
Rope1_Seg05 Rope1_Seg04
Rope1_Seg06 Rope1_Seg05
Rope1_Seg07 Rope1_Seg06
Rope1_Seg09 Rope1_Seg07
L_mid_hand01 Rope1_Seg09
L_mid_hand02 Rope1_Seg09
L_mid_hand03 Rope1_Seg09
null_rope02_connect R_mid_tent01
Rope2_Seg01 null_rope02_connect
Rope2_Seg02 Rope2_Seg01
Rope2_Seg03 Rope2_Seg02
Rope2_Seg04 Rope2_Seg03
Rope2_Seg05 Rope2_Seg04
Rope2_Seg06 Rope2_Seg05
Rope2_Seg07 Rope2_Seg06
Rope2_Seg09 Rope2_Seg07
R_mid_hand01 Rope2_Seg09
R_mid_hand02 Rope2_Seg09
R_mid_hand03 Rope2_Seg09
spine02 spine01
spine03 spine02
pelvis spine03
null_rope03_connect pelvis
null_rope04_connect pelvis
Rope3_Seg01 null_rope03_connect
Rope3_Seg02 Rope3_Seg01
Rope3_Seg03 Rope3_Seg02
Rope3_Seg04 Rope3_Seg03
Rope3_Seg05 Rope3_Seg04
Rope3_Seg06 Rope3_Seg05
Rope3_Seg07 Rope3_Seg06
Rope3_Seg08 Rope3_Seg07
Rope3_Seg09 Rope3_Seg08
R_rear_hand01 Rope3_Seg09
R_rear_hand02 Rope3_Seg09
R_rear_hand03 Rope3_Seg09
Rope4_Seg01 null_rope04_connect
Rope4_Seg02 Rope4_Seg01
Rope4_Seg03 Rope4_Seg02
Rope4_Seg04 Rope4_Seg03
Rope4_Seg05 Rope4_Seg04
Rope4_Seg06 Rope4_Seg05
Rope4_Seg07 Rope4_Seg06
Rope4_Seg08 Rope4_Seg07
Rope4_Seg09 Rope4_Seg08
L_rear_hand01 Rope4_Seg09
L_rear_hand02 Rope4_Seg09
L_rear_hand03 Rope4_Seg09
[BasePosition]
#SegmentName Tx, Ty, Tz, Rx, Ry, Rz, BoneLength
MASTER 0.000000 0.000000 0.000000 -90.000000 0.000000 0.000000 10.000000 
root 0.000000 0.000000 0.000000 0.000000 0.000000 0.000000 10.000000 
chest 0.000000 0.000000 0.000000 0.000000 0.000000 0.000000 10.000000 
L_mid_tent01 0.000000 0.000000 0.000000 0.000000 0.000000 0.000000 10.000000 
R_mid_tent01 0.000000 0.000000 0.000000 0.000000 0.000000 0.000000 10.000000 
spine01 0.000000 0.000000 0.000000 0.000000 0.000000 0.000000 10.000000 
Bip01_Neck 0.000000 0.000000 0.000000 0.000000 0.000000 0.000000 10.000000 
L_humerus 0.000000 0.000000 0.000000 0.000000 0.000000 0.000000 10.000000 
R_humerus 0.000000 0.000000 0.000000 0.000000 0.000000 0.000000 10.000000 
weapon_bone 0.000000 0.000000 0.000000 0.000000 0.000000 0.000000 10.000000 
Bip01_Head 0.000000 0.000000 0.000000 0.000000 0.000000 0.000000 10.000000 
eye_left_bone 0.000000 0.000000 0.000000 0.000000 0.000000 0.000000 10.000000 
eye_right_bone 0.000000 0.000000 0.000000 0.000000 0.000000 0.000000 10.000000 
L_forearm 0.000000 0.000000 0.000000 0.000000 0.000000 0.000000 10.000000 
L_front_hand 0.000000 0.000000 0.000000 0.000000 0.000000 0.000000 10.000000 
L_weapon_bone 0.000000 0.000000 0.000000 0.000000 0.000000 0.000000 10.000000 
L_front_hand01_01 0.000000 0.000000 0.000000 0.000000 0.000000 0.000000 10.000000 
L_front_hand02_01 0.000000 0.000000 0.000000 0.000000 0.000000 0.000000 10.000000 
L_front_hand03_01 0.000000 0.000000 0.000000 0.000000 0.000000 0.000000 10.000000 
L_front_hand01_02 0.000000 0.000000 0.000000 0.000000 0.000000 0.000000 10.000000 
L_front_hand02_02 0.000000 0.000000 0.000000 0.000000 0.000000 0.000000 10.000000 
L_front_hand03_02 0.000000 0.000000 0.000000 0.000000 0.000000 0.000000 10.000000 
R_forearm 0.000000 0.000000 0.000000 0.000000 0.000000 0.000000 10.000000 
R_front_hand 0.000000 0.000000 0.000000 0.000000 0.000000 0.000000 10.000000 
R_weapon_bone 0.000000 0.000000 0.000000 0.000000 0.000000 0.000000 10.000000 
R_front_hand01_01 0.000000 0.000000 0.000000 0.000000 0.000000 0.000000 10.000000 
R_front_hand02_01 0.000000 0.000000 0.000000 0.000000 0.000000 0.000000 10.000000 
R_front_hand03_01 0.000000 0.000000 0.000000 0.000000 0.000000 0.000000 10.000000 
R_front_hand01_02 0.000000 0.000000 0.000000 0.000000 0.000000 0.000000 10.000000 
R_front_hand02_02 0.000000 0.000000 0.000000 0.000000 0.000000 0.000000 10.000000 
R_front_hand03_02 0.000000 0.000000 0.000000 0.000000 0.000000 0.000000 10.000000 
null_rope01_connect 0.000000 0.000000 0.000000 0.000000 0.000000 0.000000 10.000000 
Rope1_Seg01 0.000000 0.000000 0.000000 0.000000 0.000000 0.000000 10.000000 
Rope1_Seg02 0.000000 0.000000 0.000000 0.000000 0.000000 0.000000 10.000000 
Rope1_Seg03 0.000000 0.000000 0.000000 0.000000 0.000000 0.000000 10.000000 
Rope1_Seg04 0.000000 0.000000 0.000000 0.000000 0.000000 0.000000 10.000000 
Rope1_Seg05 0.000000 0.000000 0.000000 0.000000 0.000000 0.000000 10.000000 
Rope1_Seg06 0.000000 0.000000 0.000000 0.000000 0.000000 0.000000 10.000000 
Rope1_Seg07 0.000000 0.000000 0.000000 0.000000 0.000000 0.000000 10.000000 
Rope1_Seg09 0.000000 0.000000 0.000000 0.000000 0.000000 0.000000 10.000000 
L_mid_hand01 0.000000 0.000000 0.000000 0.000000 0.000000 0.000000 10.000000 
L_mid_hand02 0.000000 0.000000 0.000000 0.000000 0.000000 0.000000 10.000000 
L_mid_hand03 0.000000 0.000000 0.000000 0.000000 0.000000 0.000000 10.000000 
null_rope02_connect 0.000000 0.000000 0.000000 0.000000 0.000000 0.000000 10.000000 
Rope2_Seg01 0.000000 0.000000 0.000000 0.000000 0.000000 0.000000 10.000000 
Rope2_Seg02 0.000000 0.000000 0.000000 0.000000 0.000000 0.000000 10.000000 
Rope2_Seg03 0.000000 0.000000 0.000000 0.000000 0.000000 0.000000 10.000000 
Rope2_Seg04 0.000000 0.000000 0.000000 0.000000 0.000000 0.000000 10.000000 
Rope2_Seg05 0.000000 0.000000 0.000000 0.000000 0.000000 0.000000 10.000000 
Rope2_Seg06 0.000000 0.000000 0.000000 0.000000 0.000000 0.000000 10.000000 
Rope2_Seg07 0.000000 0.000000 0.000000 0.000000 0.000000 0.000000 10.000000 
Rope2_Seg09 0.000000 0.000000 0.000000 0.000000 0.000000 0.000000 10.000000 
R_mid_hand01 0.000000 0.000000 0.000000 0.000000 0.000000 0.000000 10.000000 
R_mid_hand02 0.000000 0.000000 0.000000 0.000000 0.000000 0.000000 10.000000 
R_mid_hand03 0.000000 0.000000 0.000000 0.000000 0.000000 0.000000 10.000000 
spine02 0.000000 0.000000 0.000000 0.000000 0.000000 0.000000 10.000000 
spine03 0.000000 0.000000 0.000000 0.000000 0.000000 0.000000 10.000000 
pelvis 0.000000 0.000000 0.000000 0.000000 0.000000 0.000000 10.000000 
null_rope03_connect 0.000000 0.000000 0.000000 0.000000 0.000000 0.000000 10.000000 
null_rope04_connect 0.000000 0.000000 0.000000 0.000000 0.000000 0.000000 10.000000 
Rope3_Seg01 0.000000 0.000000 0.000000 0.000000 0.000000 0.000000 10.000000 
Rope3_Seg02 0.000000 0.000000 0.000000 0.000000 0.000000 0.000000 10.000000 
Rope3_Seg03 0.000000 0.000000 0.000000 0.000000 0.000000 0.000000 10.000000 
Rope3_Seg04 0.000000 0.000000 0.000000 0.000000 0.000000 0.000000 10.000000 
Rope3_Seg05 0.000000 0.000000 0.000000 0.000000 0.000000 0.000000 10.000000 
Rope3_Seg06 0.000000 0.000000 0.000000 0.000000 0.000000 0.000000 10.000000 
Rope3_Seg07 0.000000 0.000000 0.000000 0.000000 0.000000 0.000000 10.000000 
Rope3_Seg08 0.000000 0.000000 0.000000 0.000000 0.000000 0.000000 10.000000 
Rope3_Seg09 0.000000 0.000000 0.000000 0.000000 0.000000 0.000000 10.000000 
R_rear_hand01 0.000000 0.000000 0.000000 0.000000 0.000000 0.000000 10.000000 
R_rear_hand02 0.000000 0.000000 0.000000 0.000000 0.000000 0.000000 10.000000 
R_rear_hand03 0.000000 0.000000 0.000000 0.000000 0.000000 0.000000 10.000000 
Rope4_Seg01 0.000000 0.000000 0.000000 0.000000 0.000000 0.000000 10.000000 
Rope4_Seg02 0.000000 0.000000 0.000000 0.000000 0.000000 0.000000 10.000000 
Rope4_Seg03 0.000000 0.000000 0.000000 0.000000 0.000000 0.000000 10.000000 
Rope4_Seg04 0.000000 0.000000 0.000000 0.000000 0.000000 0.000000 10.000000 
Rope4_Seg05 0.000000 0.000000 0.000000 0.000000 0.000000 0.000000 10.000000 
Rope4_Seg06 0.000000 0.000000 0.000000 0.000000 0.000000 0.000000 10.000000 
Rope4_Seg07 0.000000 0.000000 0.000000 0.000000 0.000000 0.000000 10.000000 
Rope4_Seg08 0.000000 0.000000 0.000000 0.000000 0.000000 0.000000 10.000000 
Rope4_Seg09 0.000000 0.000000 0.000000 0.000000 0.000000 0.000000 10.000000 
L_rear_hand01 0.000000 0.000000 0.000000 0.000000 0.000000 0.000000 10.000000 
L_rear_hand02 0.000000 0.000000 0.000000 0.000000 0.000000 0.000000 10.000000 
L_rear_hand03 0.000000 0.000000 0.000000 0.000000 0.000000 0.000000 10.000000 
#Beginning of Data. Separated by tabs
#Fr	Tx	Ty	Tz	Rx	Ry	Rz	SF
[MASTER]
19 0.000005 62.822109 0.000000 0.001660 0.001660 0.001660 62.822113
20 0.000005 62.822109 0.000000 0.001660 0.001660 0.001660 62.822113
[root]
19 -16.502295 -62.822117 1500.000000 -64.929497 -25.384584 -94.877670 1501.405640
20 -16.502295 -62.822117 1500.000000 -72.072517 -26.822641 -86.863091 1501.405640
[chest]
19 -84.512650 -34.090519 0.000000 11.824924 -23.414776 170.300552 91.129311
20 -84.512650 -34.090519 0.000000 10.859196 -23.786827 170.873459 91.129311
[L_mid_tent01]
19 27.299524 22.177496 -249.917984 0.000000 89.612846 69.622772 252.380859
20 27.299522 22.177498 -249.917984 12.560795 87.491264 84.558235 252.380859
[R_mid_tent01]
19 23.228794 24.509907 226.238495 -59.509747 -54.458984 -31.585312 228.744751
20 23.228794 24.509907 226.238495 -63.482826 -59.361885 -28.277157 228.744751
[spine01]
19 -0.361383 -0.195265 0.000000 -0.409010 0.324667 11.106233 0.410763
20 -0.361383 -0.195265 0.000000 -0.419415 0.320593 11.076404 0.410763
[Bip01_Neck]
19 165.484543 71.581718 0.000119 175.896118 1.177290 24.871183 180.302734
20 165.484543 71.581718 0.000119 175.896118 1.177290 24.871183 180.302734
[L_humerus]
19 -13.983130 -135.272980 -120.471481 81.874748 71.614029 175.270584 181.680161
20 -13.983130 -135.272980 -120.471481 74.379982 65.338684 169.000458 181.680161
[R_humerus]
19 -13.983309 -135.273102 125.287651 114.489159 -56.219727 -12.674418 184.909012
20 -13.983309 -135.273102 125.287651 105.713310 -44.689571 -3.037062 184.909012
[weapon_bone]
19 235.964890 -300.705902 0.000000 0.000000 -89.951546 -128.212341 382.234833
20 235.964890 -300.705902 0.000000 0.000000 -89.951546 -128.212341 382.234833
[Bip01_Head]
19 261.355835 108.959503 -2.864218 28.139381 5.844856 -62.457458 283.173523
20 261.355835 108.959511 -2.864217 28.373264 5.846210 -62.457020 283.173523
[eye_left_bone]
19 -24.626970 125.451866 -64.772606 0.000000 -90.000000 -99.840431 143.318359
20 -24.626970 125.451866 -64.772606 0.000000 -90.000000 -99.840431 143.318359
[eye_right_bone]
19 -24.626970 125.451866 64.327362 0.000000 -89.960434 80.159386 143.117676
20 -24.626970 125.451866 64.327362 0.000000 -89.960434 80.159386 143.117676
[L_forearm]
19 322.776093 0.000000 -0.000119 0.000183 0.002340 -81.045212 322.776093
20 322.776093 0.000000 -0.000119 0.000183 0.002340 -81.045212 322.776093
[L_front_hand]
19 241.149185 -0.042021 -3.300071 -178.939407 -2.004155 -19.245598 241.171753
20 241.149185 -0.042021 -3.300071 -178.876083 -1.971363 -21.029888 241.171753
[L_weapon_bone]
19 156.183838 0.000000 0.000000 0.001668 0.001651 0.580305 156.183838
20 156.183838 0.000000 0.000000 0.001660 0.001660 0.001660 156.183838
[L_front_hand01_01]
19 86.095154 20.947098 -0.655860 -0.134112 -0.586009 50.806450 88.609184
20 86.095154 20.947098 -0.655860 -0.191468 -0.568958 56.487900 88.609184
[L_front_hand02_01]
19 86.935165 -11.437475 24.513514 129.096008 -44.148903 -29.852791 91.046425
20 86.935165 -11.437475 24.513514 133.001862 -48.433506 -35.252605 91.046425
[L_front_hand03_01]
19 86.637497 -14.123976 -20.424902 -130.052414 42.507511 -32.265408 90.126129
20 86.637497 -14.123976 -20.424902 -133.799759 46.733292 -37.597969 90.126129
[L_front_hand01_02]
19 71.020905 -0.000179 0.000030 0.000145 0.002343 -82.925819 71.020905
20 71.020905 -0.000179 0.000030 0.000031 0.002347 -88.485245 71.020905
[L_front_hand02_02]
19 71.020927 -0.000119 0.000060 0.000145 0.002343 -82.925819 71.020927
20 71.020927 -0.000119 0.000060 0.000031 0.002347 -88.485245 71.020927
[L_front_hand03_02]
19 71.020905 -0.000060 0.000060 0.000145 0.002343 -82.925819 71.020905
20 71.020905 -0.000060 0.000060 0.000031 0.002347 -88.485245 71.020905
[R_forearm]
19 322.776428 -0.000060 0.000030 0.138392 -0.162239 -42.091751 322.776428
20 322.776428 -0.000060 0.000030 0.113299 -0.181017 -33.645630 322.776428
[R_front_hand]
19 238.847015 -0.006795 2.210259 -1.451968 0.933682 -45.922840 238.857239
20 238.847015 -0.006795 2.210259 -1.250287 1.186943 -35.195789 238.857239
[R_weapon_bone]
19 155.664093 0.002503 -0.000030 0.003415 0.001373 -97.416901 155.664078
20 155.664093 0.002503 -0.000030 0.003487 0.001180 -90.988838 155.664078
[R_front_hand01_01]
19 87.624611 14.231146 22.918642 -129.185944 -44.259964 30.092247 91.683487
20 87.624611 14.231146 22.918642 -133.113586 -48.543663 35.511631 91.683487
[R_front_hand02_01]
19 89.356956 14.367283 -19.491137 130.340698 42.846199 32.917721 92.579636
20 89.356956 14.367283 -19.491137 134.157471 47.055164 38.318508 92.579636
[R_front_hand03_01]
19 87.286232 -22.307278 -0.143439 -0.028987 -0.450761 -51.196156 90.091743
20 87.286232 -22.307278 -0.143439 0.015489 -0.450927 -56.876221 90.091743
[R_front_hand01_02]
19 71.020905 0.000060 0.000119 0.002343 0.000145 82.930237 71.020905
20 71.020905 0.000060 0.000119 0.002347 0.000031 88.489883 71.020905
[R_front_hand02_02]
19 71.020844 -0.000030 -0.000119 0.002343 0.000145 82.930237 71.020836
20 71.020844 -0.000030 -0.000119 0.002347 0.000031 88.489883 71.020836
[R_front_hand03_02]
19 71.020905 0.000000 0.000030 0.002343 0.000145 82.930237 71.020905
20 71.020905 0.000000 0.000030 0.002347 0.000031 88.489883 71.020905
[null_rope01_connect]
19 328.732483 0.000000 -0.000238 -131.031845 -19.760271 166.874756 328.732483
20 328.732483 0.000000 -0.000238 -134.874741 -21.695295 176.005325 328.732483
[Rope1_Seg01]
19 0.000000 0.000000 0.000000 109.268555 -38.757805 166.324097 0.000000
20 0.000000 0.000000 0.000000 117.114670 -27.365107 147.733948 0.000000
[Rope1_Seg02]
19 139.999863 -0.000179 0.000000 0.041653 -17.180099 -11.673964 139.999863
20 139.999863 -0.000179 0.000000 -2.663169 -14.824946 -13.664932 139.999863
[Rope1_Seg03]
19 139.999924 0.000060 -0.000060 0.580841 -24.788435 -20.421047 139.999924
20 139.999924 0.000060 -0.000060 -1.799064 -12.712505 -15.986676 139.999924
[Rope1_Seg04]
19 139.999924 -0.000060 -0.000119 -0.507324 -18.390463 -17.039227 139.999924
20 139.999924 -0.000060 -0.000119 -0.794013 -8.993179 -11.719332 139.999924
[Rope1_Seg05]
19 139.999832 0.000119 -0.000060 -1.179081 -9.070420 -2.380774 139.999832
20 139.999832 0.000119 -0.000060 -0.816231 -8.195129 -1.873793 139.999832
[Rope1_Seg06]
19 139.999954 0.000119 -0.000060 -0.896314 -5.542452 0.956154 139.999954
20 139.999954 0.000119 -0.000060 -0.865173 -5.898450 0.387942 139.999954
[Rope1_Seg07]
19 139.999985 0.000060 0.000000 -0.957960 -3.612553 -0.952853 139.999985
20 139.999985 0.000060 0.000000 -0.757867 -3.328695 -0.936217 139.999985
[Rope1_Seg09]
19 121.602913 0.000119 -0.000089 -89.793175 -1.359789 0.847147 121.602913
20 121.602913 0.000119 -0.000089 -89.793175 -1.359789 0.847147 121.602913
[L_mid_hand01]
19 103.859421 1.038730 8.195221 104.962120 -16.202595 -4.793305 104.187431
20 103.859421 1.038730 8.195221 105.143661 -18.377068 -5.405622 104.187431
[L_mid_hand02]
19 105.572853 -4.139662 -10.864139 -137.773285 15.675950 -15.980903 106.211075
20 105.572853 -4.139662 -10.864139 -138.263901 17.178434 -17.722990 106.211075
[L_mid_hand03]
19 104.641464 17.579376 -3.913581 -18.078369 5.109443 19.164875 106.179977
20 104.641464 17.579376 -3.913581 -17.876316 5.806679 21.318098 106.179977
[null_rope02_connect]
19 328.732849 0.000179 -0.000119 -143.461884 -39.267185 -40.312244 328.732849
20 328.732849 0.000179 -0.000119 -149.102615 -32.649803 -26.591396 328.732849
[Rope2_Seg01]
19 -0.000057 0.000143 0.000076 11.818743 -25.785721 -33.239777 0.000172
20 -0.000056 0.000144 0.000072 26.141611 -31.363758 -44.121082 0.000170
[Rope2_Seg02]
19 139.999741 -0.000060 -0.000119 -5.889621 2.974257 5.349552 139.999756
20 139.999741 -0.000060 -0.000119 -5.179796 4.544486 4.667850 139.999756
[Rope2_Seg03]
19 140.000107 0.000030 0.000000 -8.191400 3.387564 7.980681 140.000107
20 140.000107 0.000030 0.000000 -8.819078 6.386525 7.956995 140.000107
[Rope2_Seg04]
19 139.999802 0.000000 -0.000060 -10.860337 2.594945 12.817595 139.999802
20 139.999802 0.000000 -0.000060 -15.649244 8.505127 15.877851 139.999802
[Rope2_Seg05]
19 139.999985 -0.000060 0.000119 -11.339410 0.115814 18.282906 139.999985
20 139.999985 -0.000060 0.000119 -17.728537 5.161376 25.711975 139.999985
[Rope2_Seg06]
19 139.999893 -0.000030 -0.000119 -6.537054 2.391695 12.565477 139.999893
20 139.999893 -0.000030 -0.000119 -6.225409 0.685603 11.893268 139.999893
[Rope2_Seg07]
19 139.999893 0.000060 -0.000060 -3.565911 2.464569 6.967145 139.999893
20 139.999893 0.000060 -0.000060 -2.357206 0.900843 4.718625 139.999893
[Rope2_Seg09]
19 121.338966 0.000089 -0.000060 33.793236 -1.359788 -0.847141 121.338966
20 121.338966 0.000089 -0.000060 33.793236 -1.359788 -0.847141 121.338966
[R_mid_hand01]
19 104.680779 11.144459 -10.335981 -45.435841 15.512780 17.484777 105.778534
20 104.680779 11.144459 -10.335981 -45.036018 16.896837 18.918314 105.778534
[R_mid_hand02]
19 104.070427 2.443552 8.231699 74.796021 -18.948448 5.579897 104.424065
20 104.070427 2.443552 8.231699 74.610535 -20.835545 6.127301 104.424065
[R_mid_hand03]
19 106.028137 -11.221827 -5.996406 -165.771210 6.973328 -22.869089 106.788818
20 106.028137 -11.221827 -5.996406 -166.009781 7.447365 -24.778112 106.788818
[spine02]
19 129.756927 0.001550 0.000119 -0.032530 -3.946070 -7.346004 129.756927
20 129.756927 0.001550 0.000119 -0.031994 -3.941140 -7.370806 129.756927
[spine03]
19 79.076355 0.006638 -0.383527 1.922090 -2.556430 22.355499 79.077286
20 79.115677 -0.000305 0.000000 1.907030 -2.965995 23.921795 79.115677
[pelvis]
19 169.435242 0.051022 0.000000 -132.906631 2.668225 -3.018147 169.435257
20 169.435242 0.051022 0.000000 -157.129761 2.995080 -3.905978 169.435257
[null_rope03_connect]
19 -1.257226 -2.466202 137.391083 -172.025482 19.316240 -81.936012 137.418976
20 -1.257226 -2.466202 137.391083 -159.846481 48.082844 -69.901016 137.418976
[null_rope04_connect]
19 -1.259640 -2.480268 -137.844437 -172.025482 19.316240 -81.936012 137.872513
20 -1.259640 -2.480268 -137.844437 -159.846481 48.082844 -69.901016 137.872513
[Rope3_Seg01]
19 0.000000 0.000000 0.000000 -128.892426 38.141094 -69.193771 0.000000
20 0.000000 0.000000 0.000000 -142.165482 37.682159 -92.009399 0.000000
[Rope3_Seg02]
19 139.999924 -0.000119 0.000060 -3.687121 -23.932961 13.266151 139.999924
20 139.999924 -0.000119 0.000060 -16.279255 -15.691120 23.975468 139.999924
[Rope3_Seg03]
19 139.999924 -0.000119 0.000119 -0.134350 -18.825310 5.902017 139.999924
20 139.999924 -0.000119 0.000119 -12.354650 -16.915068 11.264931 139.999924
[Rope3_Seg04]
19 139.999924 0.000119 0.000000 0.583484 -13.286373 7.632338 139.999924
20 139.999924 0.000119 0.000000 -8.373158 -12.408407 8.465805 139.999924
[Rope3_Seg05]
19 139.999924 -0.000238 0.000060 -2.026481 -18.142229 20.704271 139.999924
20 139.999924 -0.000238 0.000060 -16.033770 -18.486303 18.303385 139.999924
[Rope3_Seg06]
19 139.999893 -0.000119 -0.000060 -2.352938 -12.202772 14.859206 139.999893
20 139.999893 -0.000119 -0.000060 -10.448519 -16.002516 10.258667 139.999893
[Rope3_Seg07]
19 139.999771 0.000060 -0.000119 -0.719639 -5.406651 5.717083 139.999771
20 139.999771 0.000060 -0.000119 -3.060896 -7.345155 2.682108 139.999771
[Rope3_Seg08]
19 139.999985 -0.000060 0.000000 -0.145320 -2.928642 3.038411 139.999985
20 139.999985 -0.000060 0.000000 -1.180670 -4.047215 1.245995 139.999985
[Rope3_Seg09]
19 90.185997 -0.000179 -0.000060 89.793228 -1.359877 -0.847183 90.185997
20 90.185997 -0.000179 -0.000060 89.793228 -1.359877 -0.847183 90.185997
[R_rear_hand01]
19 103.366196 -6.073594 -10.757982 -157.907288 11.256109 -15.092504 104.101845
20 103.366196 -6.073594 -10.757982 -158.501556 12.396367 -17.993135 104.101845
[R_rear_hand02]
19 100.509819 12.039542 -7.992327 -37.601803 10.141760 15.899519 101.543350
20 100.509819 12.039542 -7.992327 -37.124035 11.994605 18.373831 101.543350
[R_rear_hand03]
19 101.539970 5.215704 5.435467 84.096497 -15.505973 5.448218 101.819031
20 101.539970 5.215704 5.435467 83.998283 -18.547722 5.781805 101.819031
[Rope4_Seg01]
19 -0.000005 -0.000057 -0.000076 23.319084 -47.663223 -64.336197 0.000095
20 -0.000004 -0.000056 -0.000072 3.734894 -32.327744 -38.081562 0.000091
[Rope4_Seg02]
19 139.999985 0.000060 0.000119 -5.003852 -20.318058 16.273682 139.999985
20 139.999985 0.000060 0.000119 -15.689027 -15.277618 17.729109 139.999985
[Rope4_Seg03]
19 139.999924 0.000000 -0.000238 1.130849 -21.884209 8.172952 139.999924
20 139.999924 0.000000 -0.000238 -8.176580 -23.842308 10.195251 139.999924
[Rope4_Seg04]
19 139.999985 0.000000 0.000119 4.985339 -14.326081 13.173351 139.999985
20 139.999985 0.000000 0.000119 -2.103994 -16.750034 8.904145 139.999985
[Rope4_Seg05]
19 139.999802 -0.000060 -0.000119 7.957818 -18.053961 50.157192 139.999802
20 139.999802 -0.000060 -0.000119 -5.494627 -28.234032 43.215385 139.999802
[Rope4_Seg06]
19 139.999924 0.000000 0.000060 1.918164 -2.534268 24.427536 139.999924
20 139.999924 0.000000 0.000060 2.331110 -13.709865 23.946074 139.999924
[Rope4_Seg07]
19 139.999802 0.000000 0.000000 0.084898 -0.746784 6.988895 139.999802
20 139.999802 0.000000 0.000000 1.371483 -3.599898 6.558529 139.999802
[Rope4_Seg08]
19 139.999924 0.000000 0.000119 -1.567325 -0.353111 3.365423 139.999924
20 139.999924 0.000000 0.000119 -0.805185 -1.628761 3.154406 139.999924
[Rope4_Seg09]
19 90.185791 0.000060 0.000060 -135.617828 2.228885 0.850567 90.185791
20 90.185791 0.000060 0.000060 -135.617828 2.228885 0.850567 90.185791
[L_rear_hand01]
19 101.696655 -8.392275 -7.654577 -37.971748 -8.386467 166.395752 102.329041
20 101.696655 -8.392275 -7.654577 -37.550838 -10.352264 163.821823 102.329041
[L_rear_hand02]
19 102.726799 -1.568258 5.773216 84.171471 12.660973 174.857391 102.900848
20 102.726799 -1.568258 5.773216 84.085754 15.850853 174.516083 102.900848
[L_rear_hand03]
19 104.552910 9.721220 -10.420293 -157.407806 -10.168639 -167.602066 105.519653
20 104.552910 9.721220 -10.420293 -157.972427 -11.390810 -164.578964 105.519653
